<?xml version="1.0" standalone="no"?>
<!DOCTYPE svg PUBLIC "-//W3C//DTD SVG 20010904//EN"
 "http://www.w3.org/TR/2001/REC-SVG-20010904/DTD/svg10.dtd">
<svg version="1.0" xmlns="http://www.w3.org/2000/svg"
 width="100" height="100" viewBox="0 0 1654.000000 626.000000"
 preserveAspectRatio="xMidYMid meet">

<defs>
  <filter id="shadow" x="-20%" y="-20%" width="140%" height="140%">
    <feGaussianBlur in="SourceAlpha" stdDeviation="20"/>
    <feOffset dx="10" dy="-200" result="offsetblur"/>
    <feFlood flood-color="black" flood-opacity="0.5"/>
    <feComposite in2="offsetblur" operator="in"/>
    <feMerge>
      <feMergeNode/>
      <feMergeNode in="SourceGraphic"/>
    </feMerge>
  </filter>
</defs>

<g transform="translate(0.000000,626.000000) scale(0.100000,-0.100000)"
fill="#525cf0" stroke="none" filter="url(#shadow)">
<path d="M11227 5159 c-7 -4 -55 -12 -107 -18 -52 -5 -106 -13 -120 -16 -63
-16 -117 -25 -178 -30 -37 -3 -85 -8 -107 -11 -22 -2 -58 -7 -80 -9 -22 -3
-58 -7 -80 -10 -153 -21 -282 -26 -737 -28 -247 0 -448 -4 -448 -7 0 -3 -17
-5 -37 -6 -184 -4 -237 -7 -298 -19 -38 -7 -97 -18 -131 -24 -33 -6 -111 -11
-172 -11 -62 0 -156 -7 -210 -16 -96 -16 -170 -17 -1077 -24 -137 -1 -254 -4
-259 -7 -5 -4 -156 -7 -335 -9 -179 -1 -365 -5 -413 -9 -52 -3 -89 -2 -92 4
-8 12 -105 11 -112 -1 -8 -12 -52 -10 -60 3 -5 9 -41 10 -128 5 -67 -4 -150
-7 -186 -7 -204 4 -335 11 -386 21 -43 9 -179 11 -529 6 -472 -7 -617 -15
-710 -41 -27 -7 -77 -17 -110 -21 -60 -7 -115 -27 -115 -43 0 -5 7 -14 15 -21
8 -7 15 -19 15 -26 0 -8 7 -14 15 -14 26 0 16 -19 -12 -26 -79 -17 -93 -25
-83 -44 5 -10 24 -21 41 -25 17 -4 33 -13 36 -21 3 -8 10 -14 17 -14 6 0 24
-7 40 -15 15 -8 32 -13 37 -10 4 3 17 -2 29 -12 11 -10 29 -18 38 -19 62 -2
183 -18 188 -25 2 -5 -8 -11 -23 -15 -78 -17 -93 -25 -83 -44 5 -10 22 -21 37
-25 16 -3 36 -15 46 -26 10 -10 26 -19 37 -19 10 0 22 -5 25 -11 4 -6 14 -8
22 -5 8 3 23 -3 34 -13 23 -21 111 -31 278 -31 106 0 224 -21 301 -53 27 -12
103 -17 315 -21 154 -4 308 -11 343 -17 35 -5 188 -11 340 -13 223 -4 291 -8
347 -22 64 -16 157 -18 1070 -23 686 -4 1006 -9 1018 -17 25 -14 7 -27 -58
-43 -27 -7 -63 -19 -80 -26 -51 -24 -265 -105 -273 -103 -4 0 -14 -1 -22 -4
-40 -14 -93 -28 -175 -48 -49 -12 -97 -28 -105 -34 -16 -13 -113 -46 -136 -46
-22 0 -144 -40 -214 -70 -36 -16 -85 -34 -110 -40 -103 -27 -128 -34 -178 -51
-30 -11 -57 -17 -62 -14 -5 3 -11 1 -15 -5 -3 -5 -14 -10 -23 -10 -10 0 -38
-11 -63 -25 -26 -13 -49 -22 -52 -19 -3 4 -16 -1 -29 -10 -12 -9 -28 -16 -35
-16 -7 0 -36 -11 -65 -24 -29 -13 -84 -36 -121 -52 -37 -15 -70 -31 -73 -35
-6 -10 -92 -49 -108 -49 -7 0 -31 -9 -53 -20 -23 -11 -75 -31 -116 -44 -42
-14 -89 -32 -106 -41 -17 -8 -31 -13 -31 -10 0 3 -10 -1 -23 -9 -12 -8 -58
-27 -102 -41 -44 -14 -88 -30 -97 -35 -10 -6 -26 -10 -35 -10 -10 0 -41 -9
-69 -20 -29 -10 -54 -17 -57 -14 -3 3 -17 -2 -31 -11 -14 -9 -29 -14 -34 -11
-5 3 -24 -6 -42 -19 -19 -14 -50 -28 -69 -31 -20 -4 -48 -17 -63 -30 -15 -12
-42 -25 -60 -29 -78 -15 -134 -40 -185 -82 -31 -25 -76 -54 -102 -65 -25 -11
-88 -40 -139 -64 -51 -24 -98 -44 -105 -44 -23 0 -141 -61 -201 -104 -34 -24
-83 -55 -111 -69 -27 -14 -63 -40 -80 -57 -36 -39 -82 -60 -129 -60 -24 0 -47
-10 -78 -35 -36 -29 -200 -134 -269 -171 -11 -6 -30 -21 -43 -33 -12 -11 -28
-21 -34 -21 -7 0 -17 -11 -22 -25 -5 -14 -15 -25 -21 -25 -6 0 -19 -8 -28 -19
-14 -16 -100 -61 -117 -61 -12 0 -158 -71 -174 -85 -8 -7 -29 -16 -46 -19 -17
-4 -40 -15 -50 -24 -11 -10 -35 -24 -54 -31 -54 -20 -100 -45 -100 -53 0 -5
-9 -8 -20 -8 -11 0 -20 -4 -20 -8 0 -11 -67 -48 -101 -56 -15 -3 -45 -21 -67
-38 -22 -18 -60 -46 -83 -63 -74 -52 -150 -128 -174 -175 -13 -25 -35 -56 -49
-69 -26 -25 -34 -55 -17 -65 5 -4 21 -7 35 -8 18 -2 26 -8 26 -21 0 -15 6 -18
30 -15 19 2 34 -3 39 -11 5 -8 16 -11 26 -7 11 4 23 -2 35 -16 14 -17 22 -20
30 -12 14 14 60 -4 60 -23 0 -7 6 -13 13 -13 6 0 1 -9 -12 -19 l-24 -19 41
-27 c22 -14 43 -33 46 -40 3 -8 13 -14 23 -14 41 0 74 -10 118 -36 33 -20 49
-25 57 -17 11 11 37 1 65 -25 11 -10 9 -14 -9 -24 l-22 -12 23 -18 c13 -11 30
-19 37 -19 8 0 19 -12 24 -26 7 -18 15 -24 28 -20 23 8 97 -17 119 -40 10 -9
26 -14 40 -11 14 2 37 0 53 -6 22 -8 41 -6 91 11 116 38 233 61 341 67 59 3
126 13 150 21 43 16 200 26 393 25 50 0 151 0 225 1 354 1 503 0 860 -4 373
-4 452 -2 685 23 61 7 126 12 145 13 19 1 40 4 45 8 15 9 177 19 405 23 113 3
250 7 305 10 91 6 110 6 148 5 6 0 197 0 422 0 226 0 442 0 480 0 225 -1 337
-3 395 -7 36 -2 175 -5 310 -7 135 -1 252 -5 260 -9 8 -3 44 -8 80 -11 36 -3
92 -7 125 -10 33 -3 139 -8 235 -10 96 -3 204 -7 239 -10 84 -8 308 -13 851
-21 250 -4 487 -12 540 -19 62 -8 130 -10 195 -5 120 9 603 5 1120 -10 482
-15 960 -18 1095 -8 58 4 159 16 225 27 66 11 193 26 282 34 193 17 211 25
169 80 -14 19 -56 51 -93 71 -99 54 -156 98 -265 202 -63 61 -104 93 -118 93
-50 0 -170 70 -234 136 -48 49 -69 64 -91 64 -15 0 -47 11 -71 25 -50 29 -150
55 -217 55 -26 0 -73 7 -105 15 -338 88 -435 105 -595 105 -72 0 -159 6 -200
14 -106 22 -340 36 -617 37 -375 1 -810 15 -860 28 -25 6 -109 14 -187 18
-178 10 -1906 9 -1988 -1 -99 -12 -419 -15 -432 -4 -7 6 -19 6 -30 0 -19 -10
-53 -9 -188 3 -127 11 -761 8 -860 -5 -49 -6 -193 -11 -318 -11 -126 0 -240
-4 -255 -9 -15 -5 -92 -12 -172 -15 -177 -6 -305 -19 -345 -34 -16 -6 -102
-17 -190 -25 -88 -9 -185 -20 -215 -25 -79 -15 -246 -21 -229 -10 8 6 59 33
113 60 55 28 106 57 113 65 8 8 21 14 30 14 16 0 113 56 123 70 3 4 42 27 88
51 45 24 99 54 120 66 20 12 55 31 77 41 22 11 54 30 70 44 49 39 116 74 180
93 33 10 78 26 100 36 205 93 278 123 328 134 39 8 179 76 263 129 68 41 142
69 349 131 50 15 127 44 172 66 46 21 88 39 94 39 6 0 52 19 103 41 50 23 124
50 163 60 40 10 86 25 102 34 17 8 36 15 44 15 8 0 61 22 118 49 57 27 130 56
161 65 31 9 90 32 130 51 40 19 80 35 90 35 45 0 227 68 373 140 151 74 339
157 504 221 40 16 100 45 132 64 32 19 94 47 136 61 43 15 96 40 118 54 22 15
67 35 100 45 32 9 80 27 106 41 26 13 87 33 135 45 49 12 107 34 129 48 22 15
56 33 75 40 19 8 42 22 50 31 8 10 36 22 62 29 25 6 57 15 70 20 13 5 26 9 31
10 4 0 21 8 37 16 17 9 47 18 68 20 78 8 166 35 245 75 80 40 161 71 222 85
17 4 68 24 115 44 92 41 216 86 295 107 54 14 157 51 220 79 28 13 74 20 157
23 116 4 118 5 152 37 24 23 35 42 37 68 2 20 1 39 -2 42 -8 8 -44 15 -103 20
-26 2 -56 11 -65 20 -10 8 -27 15 -39 15 -11 0 -25 6 -29 14 -4 7 -27 16 -51
19 -49 6 -63 14 -43 26 7 5 11 15 9 22 -3 8 -1 24 3 37 6 15 5 24 -4 27 -21 8
-70 16 -110 19 -21 2 -46 11 -56 20 -9 9 -30 16 -44 16 -17 0 -27 5 -27 15 0
11 -11 15 -36 15 -43 0 -75 16 -68 34 6 16 -48 27 -155 31 -42 1 -76 7 -80 14
-5 7 -21 9 -44 6 -30 -5 -36 -3 -31 9 4 10 -2 17 -18 21 -34 8 -197 11 -211 4
-14 -7 -27 -11 -27 -9 0 2 -11 0 -25 -5 -14 -5 -30 -10 -35 -10 -5 0 -20 -4
-35 -10 -14 -5 -30 -10 -35 -10 -5 0 -20 -4 -35 -10 -14 -5 -30 -10 -35 -10 -5
0 -20 -4 -35 -10 -14 -5 -30 -10 -35 -10 -5 0 -20 -4 -35 -10 -14 -5 -30 -10
-35 -10 -5 0 -20 -4 -35 -10 -14 -5 -30 -10 -35 -10 -5 0 -20 -4 -35 -10 -14 -5
-30 -10 -35 -10 -5 0 -20 -4 -35 -10 -14 -5 -30 -10 -35 -10 -5 0 -20 -4 -35
-10 -14 -5 -30 -10 -35 -10 -5 0 -20 -4 -35 -10 -14 -5 -30 -10 -35 -10 -5 0
-20 -4 -35 -10z"/>
</g>
</svg>
