<?xml version="1.0" standalone="no"?>
<!DOCTYPE svg PUBLIC "-//W3C//DTD SVG 20010904//EN"
 "http://www.w3.org/TR/2001/REC-SVG-20010904/DTD/svg10.dtd">
<svg version="1.0" xmlns="http://www.w3.org/2000/svg"
 width="604.000000pt" height="270.000000pt" viewBox="0 0 604.000000 270.000000"
 preserveAspectRatio="xMidYMid meet">

<defs>
  <filter id="shadow" x="-20%" y="-20%" width="140%" height="140%">
    <feGaussianBlur in="SourceAlpha" stdDeviation="20"/>
    <feOffset dx="10" dy="-200" result="offsetblur"/>
    <feFlood flood-color="black" flood-opacity="0.5"/>
    <feComposite in2="offsetblur" operator="in"/>
    <feMerge>
      <feMergeNode/>
      <feMergeNode in="SourceGraphic"/>
    </feMerge>
  </filter>
</defs>

<g transform="translate(0.000000,270.000000) scale(0.100000,-0.100000)"
fill="red" stroke="none">
<path d="M4670 2537 c-24 -12 -49 -17 -77 -14 -32 3 -43 1 -43 -9 0 -8 -10
-15 -22 -16 -13 -1 -32 -2 -43 -3 -34 -2 -75 -17 -75 -26 0 -5 -12 -9 -28 -9
-15 0 -37 -7 -50 -15 -12 -9 -50 -21 -84 -27 -35 -6 -73 -18 -85 -26 -21 -13
-23 -13 -23 2 0 19 -9 20 -33 2 -13 -10 -16 -21 -11 -40 8 -32 -7 -52 -54 -72
-20 -8 -41 -23 -48 -33 -30 -42 -182 -95 -267 -92 -36 1 -69 -5 -88 -15 -17
-8 -58 -22 -92 -29 -34 -8 -80 -19 -102 -24 -22 -5 -55 -13 -74 -16 -19 -3
-38 -8 -43 -11 -20 -13 -174 -5 -203 10 -16 8 -32 12 -35 7 -9 -14 -50 -23
-50 -12 0 6 -9 11 -20 11 -11 0 -20 -4 -20 -10 0 -5 -4 -10 -9 -10 -12 0 -20
49 -9 56 17 11 -24 45 -46 39 -77 -20 -102 -30 -113 -43 -6 -8 -16 -11 -22 -8
-5 4 -11 -3 -13 -15 -2 -18 -11 -22 -48 -24 -25 -2 -57 -6 -71 -10 -18 -5 -31
-2 -42 9 -17 17 -62 22 -71 7 -3 -4 -27 -14 -53 -21 -52 -14 -138 -54 -147
-68 -3 -5 -16 -7 -30 -5 -13 3 -27 0 -30 -6 -4 -6 -16 -11 -26 -11 -10 0 -27
-11 -38 -25 -10 -13 -53 -37 -94 -54 -77 -30 -141 -63 -164 -84 -7 -7 -31 -25
-54 -42 -55 -39 -120 -121 -120 -151 0 -13 5 -24 10 -24 6 0 10 7 10 15 0 14
16 19 51 16 9 -1 22 5 29 14 7 8 21 15 31 15 11 0 27 4 37 9 63 32 152 47 171
28 7 -7 12 -5 17 7 4 10 2 22 -5 29 -6 6 -11 15 -11 19 0 7 41 31 100 58 14 7
39 18 55 26 32 15 36 16 165 18 47 1 91 5 98 9 7 5 21 5 33 2 13 -4 27 -1 39
10 11 10 36 21 57 26 21 4 65 14 98 22 33 9 130 18 215 22 104 5 164 12 184
22 16 8 40 13 53 10 15 -3 27 1 30 8 2 8 28 16 56 20 29 4 67 13 86 21 43 18
67 18 75 -1 6 -16 -29 -45 -55 -45 -15 0 -89 -76 -89 -92 0 -4 -8 -8 -19 -8
-10 0 -24 -7 -31 -16 -8 -8 -40 -36 -73 -61 -34 -25 -65 -50 -71 -55 -6 -5
-54 -37 -106 -71 -52 -34 -99 -65 -105 -70 -5 -4 -42 -29 -82 -55 -82 -53
-153 -117 -153 -136 0 -17 -40 -53 -65 -58 -11 -2 -19 -10 -17 -18 3 -15 -76
-100 -94 -100 -7 0 -15 -11 -18 -25 -4 -14 -10 -25 -15 -25 -5 0 -26 -24 -47
-52 -21 -29 -55 -71 -75 -93 -92 -101 -142 -162 -153 -186 -6 -14 -33 -51 -59
-82 -85 -97 -167 -223 -167 -254 0 -14 128 108 162 154 21 29 61 70 87 91 27
21 76 78 111 130 35 50 69 92 76 92 6 0 23 18 38 40 30 46 209 230 224 230 5
0 12 10 15 21 4 14 11 20 21 16 8 -3 34 9 60 29 26 19 50 33 55 30 12 -8 73
19 64 27 -7 8 34 41 52 43 25 2 45 18 45 35 0 24 12 24 41 0 20 -16 21 -21 10
-35 -12 -14 -9 -16 27 -16 35 0 47 7 106 64 36 35 66 70 66 78 0 9 8 18 19 21
14 3 17 11 14 29 -4 21 2 28 45 48 27 13 57 36 68 51 15 23 25 28 59 27 55 -1
75 9 138 70 31 28 58 52 62 52 22 0 120 91 130 123 4 10 16 17 30 17 13 0 44
14 68 30 25 17 50 30 56 30 6 0 11 6 11 14 0 19 72 80 119 101 20 10 52 27 71
39 66 42 207 126 212 126 3 0 34 19 70 43 62 41 113 72 208 128 43 26 88 66
79 72 -2 2 -20 -5 -39 -16z m-1001 -471 c-11 -11 -127 -46 -153 -46 -50 0 -16
17 64 33 90 17 95 18 89 13z"/>
<path d="M3495 2155 c-5 -2 -23 -7 -40 -11 l-30 -8 40 -6 c35 -5 95 10 95 25
0 5 -49 5 -65 0z"/>
<path d="M2517 1010 c-15 -16 -33 -30 -41 -30 -17 0 -57 -60 -49 -74 5 -8 71
56 122 117 24 30 -5 18 -32 -13z"/>
<path d="M2437 843 c-4 -3 -7 -11 -7 -17 0 -6 5 -5 12 2 6 6 9 14 7 17 -3 3
-9 2 -12 -2z"/>
<path d="M5136 661 c-4 -5 -2 -12 3 -15 5 -4 12 -2 15 3 4 5 2 12 -3 15 -5 4
-12 2 -15 -3z"/>
<path d="M4595 568 c-22 -5 -94 -13 -160 -18 -66 -4 -142 -16 -170 -25 -27 -9
-77 -18 -110 -20 -33 -2 -86 -10 -117 -18 -55 -15 -280 -41 -309 -36 -8 1 -22
-1 -33 -6 -10 -4 -21 -4 -25 2 -3 5 -32 9 -64 7 -35 -1 -69 3 -85 12 -32 17
-52 18 -52 3 0 -7 -21 -8 -65 -4 -44 5 -65 4 -65 -4 0 -5 -7 -8 -15 -5 -20 8
-19 33 1 56 16 17 15 19 -16 31 -21 10 -45 12 -74 6 -22 -4 -63 -10 -91 -14
-27 -3 -54 -13 -58 -21 -6 -11 -13 -12 -28 -4 -16 9 -21 7 -31 -15 -11 -24
-15 -25 -62 -19 -28 4 -53 7 -56 7 -3 0 -18 -5 -35 -12 -26 -11 -35 -10 -73
10 -43 22 -43 22 -135 6 -51 -9 -117 -20 -147 -23 -30 -3 -73 -13 -95 -21 -22
-9 -83 -17 -135 -20 -60 -2 -100 -9 -110 -17 -21 -20 -82 -33 -180 -41 -238
-18 -571 -119 -657 -198 -35 -31 -28 -39 15 -17 27 14 45 17 67 12 19 -5 38
-4 53 4 13 7 41 10 63 7 21 -3 44 -1 51 5 20 16 237 9 248 -8 12 -20 60 3 60
29 0 27 19 38 75 44 28 4 86 11 130 18 44 6 112 12 150 13 39 0 75 4 80 7 13
8 160 -8 204 -22 24 -8 35 -8 40 0 4 6 32 10 67 9 34 -1 70 4 84 12 14 8 48
14 75 15 28 1 106 7 175 13 69 7 229 13 357 15 142 2 236 7 245 14 22 17 79
24 95 12 10 -9 18 -8 31 5 12 10 42 17 88 20 38 2 76 6 84 9 21 9 100 23 305
57 99 17 189 34 200 39 11 5 65 16 120 25 155 24 257 46 285 61 23 13 17 14
-65 13 -49 0 -108 -5 -130 -10z"/>
<path d="M4100 544 c-74 -12 -66 -19 19 -16 39 1 74 16 60 25 -2 1 -38 -3 -79
-9z"/>
</g>
</svg>
